<svg width="19" height="15" viewBox="0 0 19 15" fill="none" xmlns="http://www.w3.org/2000/svg">
<path d="M16.0843 1.24342C14.8733 0.667894 13.5747 0.243873 12.2169 0.00101874C12.1922 -0.00366827 12.1675 0.00804483 12.1548 0.0314716C11.9877 0.339138 11.8027 0.740514 11.6732 1.05599C10.2128 0.829542 8.75994 0.829542 7.3295 1.05599C7.19993 0.733501 7.00822 0.339138 6.84046 0.0314716C6.82772 0.00882646 6.80302 -0.00288664 6.77829 0.00101874C5.42126 0.243097 4.12265 0.667118 2.91091 1.24342C2.90042 1.2481 2.89143 1.25592 2.88546 1.26606C0.422268 5.07759 -0.252502 8.79544 0.0785176 12.4672C0.0800154 12.4852 0.0897511 12.5023 0.103232 12.5133C1.72837 13.7494 3.3026 14.4998 4.8476 14.9973C4.87232 15.0051 4.89852 14.9957 4.91426 14.9746C5.27973 14.4577 5.60551 13.9126 5.88484 13.3394C5.90132 13.3059 5.88558 13.266 5.85189 13.2528C5.33515 13.0497 4.8431 12.8022 4.36979 12.5211C4.33235 12.4984 4.32935 12.443 4.36379 12.4164C4.46339 12.3391 4.56302 12.2587 4.65813 12.1775C4.67534 12.1626 4.69932 12.1595 4.71955 12.1689C7.82902 13.6393 11.1954 13.6393 14.2682 12.1689C14.2884 12.1587 14.3124 12.1619 14.3303 12.1767C14.4255 12.2579 14.5251 12.3391 14.6254 12.4164C14.6599 12.443 14.6576 12.4984 14.6202 12.5211C14.1469 12.8076 13.6548 13.0497 13.1373 13.252C13.1036 13.2653 13.0886 13.3059 13.1051 13.3394C13.3905 13.9118 13.7162 14.4569 14.075 14.9738C14.0899 14.9957 14.1169 15.0051 14.1416 14.9973C15.6941 14.4998 17.2683 13.7494 18.8935 12.5133C18.9077 12.5023 18.9167 12.4859 18.9182 12.468C19.3144 8.22302 18.2546 4.53566 16.109 1.26684C16.1038 1.25592 16.0948 1.2481 16.0843 1.24342ZM6.34918 10.2315C5.41302 10.2315 4.64165 9.34128 4.64165 8.24802C4.64165 7.15476 5.39806 6.26456 6.34918 6.26456C7.30777 6.26456 8.07168 7.16258 8.0567 8.24802C8.0567 9.34128 7.30028 10.2315 6.34918 10.2315ZM12.6625 10.2315C11.7264 10.2315 10.955 9.34128 10.955 8.24802C10.955 7.15476 11.7114 6.26456 12.6625 6.26456C13.6211 6.26456 14.385 7.16258 14.37 8.24802C14.37 9.34128 13.6211 10.2315 12.6625 10.2315Z" fill="black"/>
</svg>
