<svg width="16" height="14" viewBox="0 0 16 14" fill="none" xmlns="http://www.w3.org/2000/svg">
<path d="M5.03344 14C11.0697 14 14.3722 8.61323 14.3722 3.94325C14.3722 3.79182 14.3691 3.63702 14.3628 3.48558C15.0052 2.98526 15.5597 2.36554 16 1.65555C15.4017 1.94222 14.7664 2.12944 14.1159 2.21082C14.8009 1.7687 15.3137 1.07416 15.5594 0.255939C14.915 0.667158 14.2104 0.957238 13.4756 1.11374C12.9806 0.547267 12.326 0.172193 11.6131 0.0465095C10.9003 -0.0791738 10.1688 0.0515345 9.53183 0.418426C8.89486 0.785317 8.38787 1.36796 8.08923 2.07626C7.7906 2.78457 7.71695 3.57909 7.87969 4.33699C6.575 4.26648 5.29862 3.9015 4.13332 3.26571C2.96802 2.62991 1.9398 1.73749 1.11531 0.646309C0.696266 1.42434 0.568038 2.34501 0.756687 3.22119C0.945337 4.09738 1.43671 4.86333 2.13094 5.3634C1.60975 5.34558 1.09998 5.19446 0.64375 4.92255V4.96629C0.643283 5.78278 0.905399 6.57424 1.38554 7.20615C1.86568 7.83805 2.53422 8.27139 3.2775 8.43251C2.7947 8.57476 2.28799 8.59549 1.79656 8.49309C2.0063 9.19527 2.41438 9.80942 2.96385 10.2498C3.51331 10.6902 4.17675 10.9349 4.86156 10.9497C3.69895 11.9332 2.26278 12.4666 0.784375 12.4641C0.522191 12.4637 0.260266 12.4464 0 12.4123C1.5019 13.4499 3.24902 14.001 5.03344 14Z" fill="black"/>
</svg>
