<svg width="15" height="12" viewBox="0 0 15 12" fill="none" xmlns="http://www.w3.org/2000/svg">
<path d="M14.8513 3.01404C14.8513 3.01404 14.7054 1.98413 14.2561 1.5319C13.6872 0.936714 13.0511 0.933796 12.7594 0.898785C10.6704 0.74707 7.53397 0.74707 7.53397 0.74707H7.52813C7.52813 0.74707 4.39172 0.74707 2.30272 0.898785C2.01096 0.933796 1.37493 0.936714 0.805998 1.5319C0.356689 1.98413 0.213727 3.01404 0.213727 3.01404C0.213727 3.01404 0.0620117 4.22484 0.0620117 5.43272V6.56475C0.0620117 7.77263 0.210809 8.98343 0.210809 8.98343C0.210809 8.98343 0.356689 10.0133 0.80308 10.4656C1.37201 11.0608 2.11891 11.0403 2.45152 11.1045C3.64773 11.2183 7.53105 11.2533 7.53105 11.2533C7.53105 11.2533 10.6704 11.2475 12.7594 11.0987C13.0511 11.0637 13.6872 11.0608 14.2561 10.4656C14.7054 10.0133 14.8513 8.98343 14.8513 8.98343C14.8513 8.98343 15.0001 7.77555 15.0001 6.56475V5.43272C15.0001 4.22484 14.8513 3.01404 14.8513 3.01404ZM5.98764 7.93894V3.74052L10.0227 5.84702L5.98764 7.93894Z" fill="black"/>
</svg>
